<?xml version="1.0" encoding="UTF-8"?>
<!DOCTYPE svg PUBLIC "-//W3C//DTD SVG 1.1//EN" "http://www.w3.org/Graphics/SVG/1.1/DTD/svg11.dtd">
<!-- Creator: CorelDRAW -->
<svg xmlns="http://www.w3.org/2000/svg" xml:space="preserve" width="100%" height="100%" style="shape-rendering:geometricPrecision; text-rendering:geometricPrecision; image-rendering:optimizeQuality; fill-rule:evenodd; clip-rule:evenodd"
viewBox="0 0 6.00762 6.00762"
 xmlns:xlink="http://www.w3.org/1999/xlink">
 <defs>
  <style type="text/css">
   <![CDATA[
    .str0 {stroke:#1F1A17;stroke-width:0.00762}
    .fil0 {fill:#1F1A17}
   ]]>
  </style>
 </defs>
 <g id="Layer_x0020_1">
  <metadata id="CorelCorpID_0Corel-Layer"/>
  <path class="fil0 str0" d="M0.75381 0.00381l4.5 0c0.4125,0 0.75,0.3375 0.75,0.75l0 4.5c0,0.4125 -0.3375,0.75 -0.75,0.75l-4.5 0c-0.4125,0 -0.75,-0.3375 -0.75,-0.75l0 -4.5c0,-0.4125 0.3375,-0.75 0.75,-0.75zm2.25 1c0.2761,0 0.5,0.2239 0.5,0.5 0,0.2761 -0.2239,0.5 -0.5,0.5 -0.2761,0 -0.5,-0.2239 -0.5,-0.5 0,-0.2761 0.2239,-0.5 0.5,-0.5zm-1 1.25l1.5 0 0 2.25 0.5 0 0 0.375 -2 0 0 -0.375 0.5 0 0 -1.875 -0.5 0 0 -0.375z"/>
 </g>
</svg>
